<svg width="886" height="1115" viewBox="0 0 886 1115" fill="none" xmlns="http://www.w3.org/2000/svg">
<g opacity="0.2">
<path d="M66.6023 476.362C84.0043 476.362 98.1114 462.682 98.1114 445.808C98.1114 428.934 84.0043 415.255 66.6023 415.255C49.2004 415.255 35.0933 428.934 35.0933 445.808C35.0933 462.682 49.2004 476.362 66.6023 476.362Z" stroke="#5F787D" stroke-miterlimit="10"/>
<path d="M66.5095 538.161C83.9115 538.161 98.0186 524.482 98.0186 507.608C98.0186 490.734 83.9115 477.055 66.5095 477.055C49.1075 477.055 35.0004 490.734 35.0004 507.608C35.0004 524.482 49.1075 538.161 66.5095 538.161Z" stroke="#5F787D" stroke-miterlimit="10"/>
<path d="M66.5033 600.078C83.9052 600.078 98.0123 586.399 98.0123 569.525C98.0123 552.651 83.9052 538.972 66.5033 538.972C49.1013 538.972 34.9942 552.651 34.9942 569.525C34.9942 586.399 49.1013 600.078 66.5033 600.078Z" stroke="#5F787D" stroke-miterlimit="10"/>
<path d="M66.5033 383V842.138" stroke="#5F787D" stroke-miterlimit="10"/>
<path d="M130.32 476.318C147.722 476.318 161.829 462.639 161.829 445.765C161.829 428.891 147.722 415.212 130.32 415.212C112.918 415.212 98.8109 428.891 98.8109 445.765C98.8109 462.639 112.918 476.318 130.32 476.318Z" stroke="#5F787D" stroke-miterlimit="10"/>
<path d="M0 445.623H426.487" stroke="#5F787D" stroke-miterlimit="10"/>
<path d="M130.116 383.279V842.417" stroke="#5F787D" stroke-miterlimit="10"/>
<path d="M98.13 507.404C115.532 507.404 129.639 493.725 129.639 476.851C129.639 459.977 115.532 446.297 98.13 446.297C80.728 446.297 66.6209 459.977 66.6209 476.851C66.6209 493.725 80.728 507.404 98.13 507.404Z" stroke="#5F787D" stroke-miterlimit="10"/>
<path d="M98.0433 569.203C115.445 569.203 129.552 555.524 129.552 538.65C129.552 521.776 115.445 508.097 98.0433 508.097C80.6413 508.097 66.5342 521.776 66.5342 538.65C66.5342 555.524 80.6413 569.203 98.0433 569.203Z" stroke="#5F787D" stroke-miterlimit="10"/>
<path d="M98.0371 631.12C115.439 631.12 129.546 617.441 129.546 600.567C129.546 583.693 115.439 570.014 98.0371 570.014C80.6352 570.014 66.5281 583.693 66.5281 600.567C66.5281 617.441 80.6352 631.12 98.0371 631.12Z" stroke="#5F787D" stroke-miterlimit="10"/>
<path d="M98.0309 414.048V873.18" stroke="#5F787D" stroke-miterlimit="10"/>
<path d="M161.854 507.36C179.256 507.36 193.363 493.681 193.363 476.807C193.363 459.933 179.256 446.254 161.854 446.254C144.452 446.254 130.345 459.933 130.345 476.807C130.345 493.681 144.452 507.36 161.854 507.36Z" stroke="#5F787D" stroke-miterlimit="10"/>
<path d="M31.5338 476.671H458.014" stroke="#5F787D" stroke-miterlimit="10"/>
<path d="M161.649 414.327V873.459" stroke="#5F787D" stroke-miterlimit="10"/>
<path d="M120.174 529.922C137.576 529.922 151.683 516.243 151.683 499.369C151.683 482.495 137.576 468.816 120.174 468.816C102.772 468.816 88.6649 482.495 88.6649 499.369C88.6649 516.243 102.772 529.922 120.174 529.922Z" stroke="#5F787D" stroke-miterlimit="10"/>
<path d="M120.081 591.722C137.483 591.722 151.59 578.043 151.59 561.169C151.59 544.295 137.483 530.616 120.081 530.616C102.679 530.616 88.572 544.295 88.572 561.169C88.572 578.043 102.679 591.722 120.081 591.722Z" stroke="#5F787D" stroke-miterlimit="10"/>
<path d="M120.075 653.639C137.477 653.639 151.584 639.96 151.584 623.086C151.584 606.212 137.477 592.533 120.075 592.533C102.673 592.533 88.5658 606.212 88.5658 623.086C88.5658 639.96 102.673 653.639 120.075 653.639Z" stroke="#5F787D" stroke-miterlimit="10"/>
<path d="M120.069 436.567V895.699" stroke="#5F787D" stroke-miterlimit="10"/>
<path d="M183.892 529.879C201.294 529.879 215.401 516.2 215.401 499.326C215.401 482.452 201.294 468.773 183.892 468.773C166.49 468.773 152.383 482.452 152.383 499.326C152.383 516.2 166.49 529.879 183.892 529.879Z" stroke="#5F787D" stroke-miterlimit="10"/>
<path d="M53.5716 499.19H480.052" stroke="#5F787D" stroke-miterlimit="10"/>
<path d="M183.687 436.839V895.978" stroke="#5F787D" stroke-miterlimit="10"/>
<path d="M152.271 560.581C169.673 560.581 183.78 546.902 183.78 530.027C183.78 513.153 169.673 499.474 152.271 499.474C134.869 499.474 120.762 513.153 120.762 530.027C120.762 546.902 134.869 560.581 152.271 560.581Z" stroke="#5F787D" stroke-miterlimit="10"/>
<path d="M152.178 622.38C169.58 622.38 183.687 608.701 183.687 591.827C183.687 574.953 169.58 561.274 152.178 561.274C134.776 561.274 120.669 574.953 120.669 591.827C120.669 608.701 134.776 622.38 152.178 622.38Z" stroke="#5F787D" stroke-miterlimit="10"/>
<path d="M152.172 684.297C169.574 684.297 183.681 670.618 183.681 653.744C183.681 636.87 169.574 623.191 152.172 623.191C134.77 623.191 120.663 636.87 120.663 653.744C120.663 670.618 134.77 684.297 152.172 684.297Z" stroke="#5F787D" stroke-miterlimit="10"/>
<path d="M152.172 467.225V926.357" stroke="#5F787D" stroke-miterlimit="10"/>
<path d="M215.995 560.537C233.397 560.537 247.504 546.858 247.504 529.984C247.504 513.11 233.397 499.431 215.995 499.431C198.593 499.431 184.486 513.11 184.486 529.984C184.486 546.858 198.593 560.537 215.995 560.537Z" stroke="#5F787D" stroke-miterlimit="10"/>
<path d="M85.6687 529.848H512.155" stroke="#5F787D" stroke-miterlimit="10"/>
<path d="M215.784 467.504V926.636" stroke="#5F787D" stroke-miterlimit="10"/>
<path d="M184.498 622.875C201.9 622.875 216.007 609.196 216.007 592.322C216.007 575.448 201.9 561.769 184.498 561.769C167.096 561.769 152.989 575.448 152.989 592.322C152.989 609.196 167.096 622.875 184.498 622.875Z" stroke="#5F787D" stroke-miterlimit="10"/>
<path d="M184.405 684.675C201.807 684.675 215.914 670.996 215.914 654.122C215.914 637.248 201.807 623.568 184.405 623.568C167.003 623.568 152.896 637.248 152.896 654.122C152.896 670.996 167.003 684.675 184.405 684.675Z" stroke="#5F787D" stroke-miterlimit="10"/>
<path d="M184.399 746.592C201.801 746.592 215.908 732.913 215.908 716.039C215.908 699.165 201.801 685.486 184.399 685.486C166.997 685.486 152.89 699.165 152.89 716.039C152.89 732.913 166.997 746.592 184.399 746.592Z" stroke="#5F787D" stroke-miterlimit="10"/>
<path d="M184.399 529.52V988.652" stroke="#5F787D" stroke-miterlimit="10"/>
<path d="M248.222 622.832C265.624 622.832 279.731 609.153 279.731 592.279C279.731 575.405 265.624 561.726 248.222 561.726C230.82 561.726 216.713 575.405 216.713 592.279C216.713 609.153 230.82 622.832 248.222 622.832Z" stroke="#5F787D" stroke-miterlimit="10"/>
<path d="M117.896 592.143H544.383" stroke="#5F787D" stroke-miterlimit="10"/>
<path d="M248.012 529.792V988.931" stroke="#5F787D" stroke-miterlimit="10"/>
<path d="M215.834 622.813C233.236 622.813 247.343 609.134 247.343 592.26C247.343 575.386 233.236 561.707 215.834 561.707C198.432 561.707 184.325 575.386 184.325 592.26C184.325 609.134 198.432 622.813 215.834 622.813Z" stroke="#5F787D" stroke-miterlimit="10"/>
<path d="M215.747 684.619C233.149 684.619 247.256 670.94 247.256 654.066C247.256 637.192 233.149 623.513 215.747 623.513C198.345 623.513 184.238 637.192 184.238 654.066C184.238 670.94 198.345 684.619 215.747 684.619Z" stroke="#5F787D" stroke-miterlimit="10"/>
<path d="M215.741 746.536C233.143 746.536 247.25 732.857 247.25 715.983C247.25 699.109 233.143 685.43 215.741 685.43C198.339 685.43 184.232 699.109 184.232 715.983C184.232 732.857 198.339 746.536 215.741 746.536Z" stroke="#5F787D" stroke-miterlimit="10"/>
<path d="M215.735 529.458V988.596" stroke="#5F787D" stroke-miterlimit="10"/>
<path d="M279.558 622.776C296.96 622.776 311.067 609.097 311.067 592.223C311.067 575.349 296.96 561.67 279.558 561.67C262.156 561.67 248.049 575.349 248.049 592.223C248.049 609.097 262.156 622.776 279.558 622.776Z" stroke="#5F787D" stroke-miterlimit="10"/>
<path d="M149.232 592.081H575.718" stroke="#5F787D" stroke-miterlimit="10"/>
<path d="M279.354 529.737V988.875" stroke="#5F787D" stroke-miterlimit="10"/>
<path d="M248.222 654.109C265.624 654.109 279.731 640.43 279.731 623.556C279.731 606.682 265.624 593.003 248.222 593.003C230.82 593.003 216.713 606.682 216.713 623.556C216.713 640.43 230.82 654.109 248.222 654.109Z" stroke="#5F787D" stroke-miterlimit="10"/>
<path d="M248.129 715.909C265.531 715.909 279.638 702.23 279.638 685.356C279.638 668.482 265.531 654.802 248.129 654.802C230.727 654.802 216.62 668.482 216.62 685.356C216.62 702.23 230.727 715.909 248.129 715.909Z" stroke="#5F787D" stroke-miterlimit="10"/>
<path d="M248.123 777.826C265.525 777.826 279.632 764.147 279.632 747.273C279.632 730.399 265.525 716.72 248.123 716.72C230.721 716.72 216.614 730.399 216.614 747.273C216.614 764.147 230.721 777.826 248.123 777.826Z" stroke="#5F787D" stroke-miterlimit="10"/>
<path d="M248.117 560.754V1019.89" stroke="#5F787D" stroke-miterlimit="10"/>
<path d="M311.94 654.066C329.342 654.066 343.449 640.387 343.449 623.513C343.449 606.639 329.342 592.96 311.94 592.96C294.538 592.96 280.431 606.639 280.431 623.513C280.431 640.387 294.538 654.066 311.94 654.066Z" stroke="#5F787D" stroke-miterlimit="10"/>
<path d="M181.62 623.377H608.1" stroke="#5F787D" stroke-miterlimit="10"/>
<path d="M311.735 561.032V1020.16" stroke="#5F787D" stroke-miterlimit="10"/>
<path d="M279.774 686.043C297.176 686.043 311.283 672.363 311.283 655.489C311.283 638.615 297.176 624.936 279.774 624.936C262.372 624.936 248.265 638.615 248.265 655.489C248.265 672.363 262.372 686.043 279.774 686.043Z" stroke="#5F787D" stroke-miterlimit="10"/>
<path d="M279.682 747.842C297.084 747.842 311.191 734.163 311.191 717.289C311.191 700.415 297.084 686.736 279.682 686.736C262.28 686.736 248.173 700.415 248.173 717.289C248.173 734.163 262.28 747.842 279.682 747.842Z" stroke="#5F787D" stroke-miterlimit="10"/>
<path d="M279.675 809.759C297.077 809.759 311.184 796.08 311.184 779.206C311.184 762.332 297.077 748.653 279.675 748.653C262.273 748.653 248.166 762.332 248.166 779.206C248.166 796.08 262.273 809.759 279.675 809.759Z" stroke="#5F787D" stroke-miterlimit="10"/>
<path d="M279.675 592.687V1051.82" stroke="#5F787D" stroke-miterlimit="10"/>
<path d="M343.492 685.999C360.894 685.999 375.001 672.32 375.001 655.446C375.001 638.572 360.894 624.893 343.492 624.893C326.09 624.893 311.983 638.572 311.983 655.446C311.983 672.32 326.09 685.999 343.492 685.999Z" stroke="#5F787D" stroke-miterlimit="10"/>
<path d="M213.172 655.31H639.659" stroke="#5F787D" stroke-miterlimit="10"/>
<path d="M343.288 592.966V1052.1" stroke="#5F787D" stroke-miterlimit="10"/>
<path d="M311.779 717.116C329.181 717.116 343.288 703.437 343.288 686.563C343.288 669.689 329.181 656.01 311.779 656.01C294.377 656.01 280.27 669.689 280.27 686.563C280.27 703.437 294.377 717.116 311.779 717.116Z" stroke="#5F787D" stroke-miterlimit="10"/>
<path d="M311.686 778.921C329.088 778.921 343.195 765.242 343.195 748.368C343.195 731.494 329.088 717.815 311.686 717.815C294.284 717.815 280.177 731.494 280.177 748.368C280.177 765.242 294.284 778.921 311.686 778.921Z" stroke="#5F787D" stroke-miterlimit="10"/>
<path d="M311.68 840.839C329.082 840.839 343.189 827.159 343.189 810.285C343.189 793.411 329.082 779.732 311.68 779.732C294.278 779.732 280.171 793.411 280.171 810.285C280.171 827.159 294.278 840.839 311.68 840.839Z" stroke="#5F787D" stroke-miterlimit="10"/>
<path d="M311.674 623.76V1082.9" stroke="#5F787D" stroke-miterlimit="10"/>
<path d="M375.496 717.079C392.898 717.079 407.005 703.4 407.005 686.525C407.005 669.651 392.898 655.972 375.496 655.972C358.094 655.972 343.987 669.651 343.987 686.525C343.987 703.4 358.094 717.079 375.496 717.079Z" stroke="#5F787D" stroke-miterlimit="10"/>
<path d="M245.176 686.383H671.657" stroke="#5F787D" stroke-miterlimit="10"/>
<path d="M375.292 624.039V1083.18" stroke="#5F787D" stroke-miterlimit="10"/>
<path d="M343.746 748.622C361.148 748.622 375.255 734.943 375.255 718.069C375.255 701.195 361.148 687.516 343.746 687.516C326.344 687.516 312.237 701.195 312.237 718.069C312.237 734.943 326.344 748.622 343.746 748.622Z" stroke="#5F787D" stroke-miterlimit="10"/>
<path d="M343.653 810.422C361.055 810.422 375.162 796.742 375.162 779.868C375.162 762.994 361.055 749.315 343.653 749.315C326.251 749.315 312.144 762.994 312.144 779.868C312.144 796.742 326.251 810.422 343.653 810.422Z" stroke="#5F787D" stroke-miterlimit="10"/>
<path d="M343.647 872.339C361.049 872.339 375.156 858.659 375.156 841.785C375.156 824.911 361.049 811.232 343.647 811.232C326.245 811.232 312.138 824.911 312.138 841.785C312.138 858.659 326.245 872.339 343.647 872.339Z" stroke="#5F787D" stroke-miterlimit="10"/>
<path d="M343.647 655.26V1114.4" stroke="#5F787D" stroke-miterlimit="10"/>
<path d="M407.464 748.579C424.865 748.579 438.973 734.9 438.973 718.026C438.973 701.152 424.865 687.473 407.464 687.473C390.062 687.473 375.954 701.152 375.954 718.026C375.954 734.9 390.062 748.579 407.464 748.579Z" stroke="#5F787D" stroke-miterlimit="10"/>
<path d="M277.144 717.883H703.63" stroke="#5F787D" stroke-miterlimit="10"/>
<path d="M407.259 655.539V1114.68" stroke="#5F787D" stroke-miterlimit="10"/>
<path d="M577.074 507.193C594.476 507.193 608.583 493.514 608.583 476.64C608.583 459.766 594.476 446.087 577.074 446.087C559.672 446.087 545.565 459.766 545.565 476.64C545.565 493.514 559.672 507.193 577.074 507.193Z" stroke="#5F787D" stroke-miterlimit="10"/>
<path d="M577.167 568.993C594.569 568.993 608.676 555.314 608.676 538.44C608.676 521.565 594.569 507.886 577.167 507.886C559.765 507.886 545.658 521.565 545.658 538.44C545.658 555.314 559.765 568.993 577.167 568.993Z" stroke="#5F787D" stroke-miterlimit="10"/>
<path d="M577.173 630.91C594.575 630.91 608.682 617.231 608.682 600.357C608.682 583.483 594.575 569.803 577.173 569.803C559.771 569.803 545.664 583.483 545.664 600.357C545.664 617.231 559.771 630.91 577.173 630.91Z" stroke="#5F787D" stroke-miterlimit="10"/>
<path d="M577.173 413.838V872.97" stroke="#5F787D" stroke-miterlimit="10"/>
<path d="M513.356 507.15C530.758 507.15 544.865 493.471 544.865 476.597C544.865 459.723 530.758 446.044 513.356 446.044C495.954 446.044 481.847 459.723 481.847 476.597C481.847 493.471 495.954 507.15 513.356 507.15Z" stroke="#5F787D" stroke-miterlimit="10"/>
<path d="M643.676 476.461H217.19" stroke="#5F787D" stroke-miterlimit="10"/>
<path d="M513.561 414.116V873.249" stroke="#5F787D" stroke-miterlimit="10"/>
<path d="M543.262 538.353C560.664 538.353 574.771 524.674 574.771 507.8C574.771 490.926 560.664 477.247 543.262 477.247C525.86 477.247 511.753 490.926 511.753 507.8C511.753 524.674 525.86 538.353 543.262 538.353Z" stroke="#5F787D" stroke-miterlimit="10"/>
<path d="M543.349 600.158C560.751 600.158 574.858 586.479 574.858 569.605C574.858 552.731 560.751 539.052 543.349 539.052C525.947 539.052 511.84 552.731 511.84 569.605C511.84 586.479 525.947 600.158 543.349 600.158Z" stroke="#5F787D" stroke-miterlimit="10"/>
<path d="M543.361 662.076C560.763 662.076 574.87 648.396 574.87 631.522C574.87 614.648 560.763 600.969 543.361 600.969C525.959 600.969 511.852 614.648 511.852 631.522C511.852 648.396 525.959 662.076 543.361 662.076Z" stroke="#5F787D" stroke-miterlimit="10"/>
<path d="M543.361 444.998V904.136" stroke="#5F787D" stroke-miterlimit="10"/>
<path d="M479.538 538.316C496.94 538.316 511.047 524.637 511.047 507.763C511.047 490.889 496.94 477.209 479.538 477.209C462.136 477.209 448.029 490.889 448.029 507.763C448.029 524.637 462.136 538.316 479.538 538.316Z" stroke="#5F787D" stroke-miterlimit="10"/>
<path d="M609.864 507.62H183.378" stroke="#5F787D" stroke-miterlimit="10"/>
<path d="M479.749 445.276V904.408" stroke="#5F787D" stroke-miterlimit="10"/>
<path d="M513.74 568.943C531.142 568.943 545.249 555.264 545.249 538.39C545.249 521.516 531.142 507.837 513.74 507.837C496.338 507.837 482.231 521.516 482.231 538.39C482.231 555.264 496.338 568.943 513.74 568.943Z" stroke="#5F787D" stroke-miterlimit="10"/>
<path d="M513.833 630.749C531.235 630.749 545.342 617.07 545.342 600.196C545.342 583.322 531.235 569.643 513.833 569.643C496.431 569.643 482.324 583.322 482.324 600.196C482.324 617.07 496.431 630.749 513.833 630.749Z" stroke="#5F787D" stroke-miterlimit="10"/>
<path d="M513.839 692.666C531.241 692.666 545.348 678.987 545.348 662.113C545.348 645.239 531.241 631.56 513.839 631.56C496.437 631.56 482.33 645.239 482.33 662.113C482.33 678.987 496.437 692.666 513.839 692.666Z" stroke="#5F787D" stroke-miterlimit="10"/>
<path d="M513.839 475.588V934.726" stroke="#5F787D" stroke-miterlimit="10"/>
<path d="M450.022 568.906C467.424 568.906 481.532 555.227 481.532 538.353C481.532 521.479 467.424 507.8 450.022 507.8C432.62 507.8 418.513 521.479 418.513 538.353C418.513 555.227 432.62 568.906 450.022 568.906Z" stroke="#5F787D" stroke-miterlimit="10"/>
<path d="M580.342 538.21H153.862" stroke="#5F787D" stroke-miterlimit="10"/>
<path d="M450.227 475.866V934.998" stroke="#5F787D" stroke-miterlimit="10"/>
<path d="M482.212 599.923C499.614 599.923 513.721 586.244 513.721 569.37C513.721 552.496 499.614 538.817 482.212 538.817C464.81 538.817 450.703 552.496 450.703 569.37C450.703 586.244 464.81 599.923 482.212 599.923Z" stroke="#5F787D" stroke-miterlimit="10"/>
<path d="M482.299 661.723C499.701 661.723 513.808 648.044 513.808 631.17C513.808 614.296 499.701 600.617 482.299 600.617C464.897 600.617 450.79 614.296 450.79 631.17C450.79 648.044 464.897 661.723 482.299 661.723Z" stroke="#5F787D" stroke-miterlimit="10"/>
<path d="M482.305 723.64C499.707 723.64 513.814 709.961 513.814 693.087C513.814 676.213 499.707 662.534 482.305 662.534C464.903 662.534 450.796 676.213 450.796 693.087C450.796 709.961 464.903 723.64 482.305 723.64Z" stroke="#5F787D" stroke-miterlimit="10"/>
<path d="M482.312 506.568V965.7" stroke="#5F787D" stroke-miterlimit="10"/>
<path d="M418.489 599.88C435.891 599.88 449.998 586.201 449.998 569.327C449.998 552.453 435.891 538.774 418.489 538.774C401.087 538.774 386.979 552.453 386.979 569.327C386.979 586.201 401.087 599.88 418.489 599.88Z" stroke="#5F787D" stroke-miterlimit="10"/>
<path d="M548.815 569.191H122.328" stroke="#5F787D" stroke-miterlimit="10"/>
<path d="M418.699 506.846V965.979" stroke="#5F787D" stroke-miterlimit="10"/>
<path d="M450.171 629.808C467.573 629.808 481.68 616.129 481.68 599.255C481.68 582.381 467.573 568.702 450.171 568.702C432.769 568.702 418.662 582.381 418.662 599.255C418.662 616.129 432.769 629.808 450.171 629.808Z" stroke="#5F787D" stroke-miterlimit="10"/>
<path d="M450.264 691.607C467.666 691.607 481.773 677.928 481.773 661.054C481.773 644.18 467.666 630.501 450.264 630.501C432.862 630.501 418.755 644.18 418.755 661.054C418.755 677.928 432.862 691.607 450.264 691.607Z" stroke="#5F787D" stroke-miterlimit="10"/>
<path d="M450.27 753.524C467.672 753.524 481.779 739.845 481.779 722.971C481.779 706.097 467.672 692.418 450.27 692.418C432.868 692.418 418.761 706.097 418.761 722.971C418.761 739.845 432.868 753.524 450.27 753.524Z" stroke="#5F787D" stroke-miterlimit="10"/>
<path d="M450.27 536.453V995.585" stroke="#5F787D" stroke-miterlimit="10"/>
<path d="M386.453 629.764C403.855 629.764 417.962 616.085 417.962 599.211C417.962 582.337 403.855 568.658 386.453 568.658C369.051 568.658 354.944 582.337 354.944 599.211C354.944 616.085 369.051 629.764 386.453 629.764Z" stroke="#5F787D" stroke-miterlimit="10"/>
<path d="M516.773 599.075H90.2867" stroke="#5F787D" stroke-miterlimit="10"/>
<path d="M386.658 536.731V995.863" stroke="#5F787D" stroke-miterlimit="10"/>
<path d="M450.047 505.912C467.449 505.912 481.556 492.233 481.556 475.359C481.556 458.485 467.449 444.806 450.047 444.806C432.645 444.806 418.538 458.485 418.538 475.359C418.538 492.233 432.645 505.912 450.047 505.912Z" stroke="#5F787D" stroke-miterlimit="10"/>
<path d="M450.134 567.711C467.536 567.711 481.643 554.032 481.643 537.158C481.643 520.284 467.536 506.605 450.134 506.605C432.732 506.605 418.625 520.284 418.625 537.158C418.625 554.032 432.732 567.711 450.134 567.711Z" stroke="#5F787D" stroke-miterlimit="10"/>
<path d="M450.14 629.628C467.542 629.628 481.649 615.949 481.649 599.075C481.649 582.201 467.542 568.522 450.14 568.522C432.738 568.522 418.631 582.201 418.631 599.075C418.631 615.949 432.738 629.628 450.14 629.628Z" stroke="#5F787D" stroke-miterlimit="10"/>
<path d="M450.146 412.55V871.689" stroke="#5F787D" stroke-miterlimit="10"/>
<path d="M386.323 505.869C403.725 505.869 417.832 492.189 417.832 475.315C417.832 458.441 403.725 444.762 386.323 444.762C368.921 444.762 354.814 458.441 354.814 475.315C354.814 492.189 368.921 505.869 386.323 505.869Z" stroke="#5F787D" stroke-miterlimit="10"/>
<path d="M516.643 475.173H90.1629" stroke="#5F787D" stroke-miterlimit="10"/>
<path d="M386.528 412.829V871.967" stroke="#5F787D" stroke-miterlimit="10"/>
<path d="M416.861 537.102C434.263 537.102 448.37 523.423 448.37 506.549C448.37 489.675 434.263 475.996 416.861 475.996C399.459 475.996 385.352 489.675 385.352 506.549C385.352 523.423 399.459 537.102 416.861 537.102Z" stroke="#5F787D" stroke-miterlimit="10"/>
<path d="M416.953 598.902C434.355 598.902 448.462 585.223 448.462 568.349C448.462 551.475 434.355 537.796 416.953 537.796C399.551 537.796 385.444 551.475 385.444 568.349C385.444 585.223 399.551 598.902 416.953 598.902Z" stroke="#5F787D" stroke-miterlimit="10"/>
<path d="M416.96 660.819C434.362 660.819 448.469 647.14 448.469 630.266C448.469 613.392 434.362 599.713 416.96 599.713C399.558 599.713 385.451 613.392 385.451 630.266C385.451 647.14 399.558 660.819 416.96 660.819Z" stroke="#5F787D" stroke-miterlimit="10"/>
<path d="M416.96 443.747V902.879" stroke="#5F787D" stroke-miterlimit="10"/>
<path d="M353.143 537.065C370.545 537.065 384.652 523.386 384.652 506.512C384.652 489.638 370.545 475.959 353.143 475.959C335.741 475.959 321.634 489.638 321.634 506.512C321.634 523.386 335.741 537.065 353.143 537.065Z" stroke="#5F787D" stroke-miterlimit="10"/>
<path d="M483.463 506.37H56.9763" stroke="#5F787D" stroke-miterlimit="10"/>
<path d="M353.347 444.026V903.158" stroke="#5F787D" stroke-miterlimit="10"/>
<path d="M385.692 568.268C403.094 568.268 417.201 554.589 417.201 537.715C417.201 520.841 403.094 507.162 385.692 507.162C368.29 507.162 354.183 520.841 354.183 537.715C354.183 554.589 368.29 568.268 385.692 568.268Z" stroke="#5F787D" stroke-miterlimit="10"/>
<path d="M385.785 630.068C403.187 630.068 417.294 616.389 417.294 599.515C417.294 582.641 403.187 568.962 385.785 568.962C368.383 568.962 354.276 582.641 354.276 599.515C354.276 616.389 368.383 630.068 385.785 630.068Z" stroke="#5F787D" stroke-miterlimit="10"/>
<path d="M385.791 691.985C403.193 691.985 417.3 678.306 417.3 661.432C417.3 644.558 403.193 630.879 385.791 630.879C368.389 630.879 354.282 644.558 354.282 661.432C354.282 678.306 368.389 691.985 385.791 691.985Z" stroke="#5F787D" stroke-miterlimit="10"/>
<path d="M385.797 474.913V934.045" stroke="#5F787D" stroke-miterlimit="10"/>
<path d="M321.974 568.225C339.376 568.225 353.483 554.546 353.483 537.672C353.483 520.798 339.376 507.119 321.974 507.119C304.572 507.119 290.465 520.798 290.465 537.672C290.465 554.546 304.572 568.225 321.974 568.225Z" stroke="#5F787D" stroke-miterlimit="10"/>
<path d="M452.294 537.536H25.8138" stroke="#5F787D" stroke-miterlimit="10"/>
<path d="M322.179 475.192V934.324" stroke="#5F787D" stroke-miterlimit="10"/>
</g>
<g opacity="0.2">
<path d="M248.602 93.3615C266.004 93.3615 280.111 79.6824 280.111 62.8084C280.111 45.9344 266.004 32.2553 248.602 32.2553C231.2 32.2553 217.093 45.9344 217.093 62.8084C217.093 79.6824 231.2 93.3615 248.602 93.3615Z" stroke="#5F787D" stroke-miterlimit="10"/>
<path d="M248.509 155.161C265.911 155.161 280.019 141.482 280.019 124.608C280.019 107.734 265.911 94.0548 248.509 94.0548C231.108 94.0548 217 107.734 217 124.608C217 141.482 231.108 155.161 248.509 155.161Z" stroke="#5F787D" stroke-miterlimit="10"/>
<path d="M248.503 217.078C265.905 217.078 280.012 203.399 280.012 186.525C280.012 169.651 265.905 155.972 248.503 155.972C231.101 155.972 216.994 169.651 216.994 186.525C216.994 203.399 231.101 217.078 248.503 217.078Z" stroke="#5F787D" stroke-miterlimit="10"/>
<path d="M248.503 -3.8147e-06V459.138" stroke="#5F787D" stroke-miterlimit="10"/>
<path d="M312.32 93.3182C329.722 93.3182 343.829 79.6391 343.829 62.7651C343.829 45.8911 329.722 32.212 312.32 32.212C294.918 32.212 280.811 45.8911 280.811 62.7651C280.811 79.6391 294.918 93.3182 312.32 93.3182Z" stroke="#5F787D" stroke-miterlimit="10"/>
<path d="M182 62.6227H608.487" stroke="#5F787D" stroke-miterlimit="10"/>
<path d="M312.116 0.278542V459.417" stroke="#5F787D" stroke-miterlimit="10"/>
<path d="M280.13 124.404C297.532 124.404 311.639 110.725 311.639 93.8505C311.639 76.9765 297.532 63.2974 280.13 63.2974C262.728 63.2974 248.621 76.9765 248.621 93.8505C248.621 110.725 262.728 124.404 280.13 124.404Z" stroke="#5F787D" stroke-miterlimit="10"/>
<path d="M280.043 186.203C297.445 186.203 311.552 172.524 311.552 155.65C311.552 138.776 297.445 125.097 280.043 125.097C262.641 125.097 248.534 138.776 248.534 155.65C248.534 172.524 262.641 186.203 280.043 186.203Z" stroke="#5F787D" stroke-miterlimit="10"/>
<path d="M280.037 248.12C297.439 248.12 311.546 234.441 311.546 217.567C311.546 200.693 297.439 187.014 280.037 187.014C262.635 187.014 248.528 200.693 248.528 217.567C248.528 234.441 262.635 248.12 280.037 248.12Z" stroke="#5F787D" stroke-miterlimit="10"/>
<path d="M280.031 31.0483V490.18" stroke="#5F787D" stroke-miterlimit="10"/>
<path d="M343.854 124.36C361.256 124.36 375.363 110.681 375.363 93.8072C375.363 76.9332 361.256 63.2541 343.854 63.2541C326.452 63.2541 312.345 76.9332 312.345 93.8072C312.345 110.681 326.452 124.36 343.854 124.36Z" stroke="#5F787D" stroke-miterlimit="10"/>
<path d="M213.534 93.671H640.014" stroke="#5F787D" stroke-miterlimit="10"/>
<path d="M343.65 31.3268V490.459" stroke="#5F787D" stroke-miterlimit="10"/>
<path d="M302.174 146.922C319.576 146.922 333.683 133.243 333.683 116.369C333.683 99.4952 319.576 85.8161 302.174 85.8161C284.772 85.8161 270.665 99.4952 270.665 116.369C270.665 133.243 284.772 146.922 302.174 146.922Z" stroke="#5F787D" stroke-miterlimit="10"/>
<path d="M302.081 208.722C319.483 208.722 333.59 195.043 333.59 178.169C333.59 161.295 319.483 147.616 302.081 147.616C284.679 147.616 270.572 161.295 270.572 178.169C270.572 195.043 284.679 208.722 302.081 208.722Z" stroke="#5F787D" stroke-miterlimit="10"/>
<path d="M302.075 270.639C319.477 270.639 333.584 256.96 333.584 240.086C333.584 223.212 319.477 209.533 302.075 209.533C284.673 209.533 270.566 223.212 270.566 240.086C270.566 256.96 284.673 270.639 302.075 270.639Z" stroke="#5F787D" stroke-miterlimit="10"/>
<path d="M302.069 53.567V512.699" stroke="#5F787D" stroke-miterlimit="10"/>
<path d="M365.892 146.879C383.294 146.879 397.401 133.2 397.401 116.326C397.401 99.4518 383.294 85.7728 365.892 85.7728C348.49 85.7728 334.383 99.4518 334.383 116.326C334.383 133.2 348.49 146.879 365.892 146.879Z" stroke="#5F787D" stroke-miterlimit="10"/>
<path d="M235.572 116.19H662.052" stroke="#5F787D" stroke-miterlimit="10"/>
<path d="M365.687 53.8393V512.978" stroke="#5F787D" stroke-miterlimit="10"/>
<path d="M334.271 177.581C351.673 177.581 365.78 163.902 365.78 147.028C365.78 130.154 351.673 116.474 334.271 116.474C316.869 116.474 302.762 130.154 302.762 147.028C302.762 163.902 316.869 177.581 334.271 177.581Z" stroke="#5F787D" stroke-miterlimit="10"/>
<path d="M334.178 239.38C351.58 239.38 365.687 225.701 365.687 208.827C365.687 191.953 351.58 178.274 334.178 178.274C316.776 178.274 302.669 191.953 302.669 208.827C302.669 225.701 316.776 239.38 334.178 239.38Z" stroke="#5F787D" stroke-miterlimit="10"/>
<path d="M334.172 301.297C351.574 301.297 365.681 287.618 365.681 270.744C365.681 253.87 351.574 240.191 334.172 240.191C316.77 240.191 302.663 253.87 302.663 270.744C302.663 287.618 316.77 301.297 334.172 301.297Z" stroke="#5F787D" stroke-miterlimit="10"/>
<path d="M334.172 84.2253V543.357" stroke="#5F787D" stroke-miterlimit="10"/>
<path d="M397.995 177.537C415.397 177.537 429.504 163.858 429.504 146.984C429.504 130.11 415.397 116.431 397.995 116.431C380.593 116.431 366.486 130.11 366.486 146.984C366.486 163.858 380.593 177.537 397.995 177.537Z" stroke="#5F787D" stroke-miterlimit="10"/>
<path d="M267.669 146.848H694.155" stroke="#5F787D" stroke-miterlimit="10"/>
<path d="M397.784 84.5038V543.636" stroke="#5F787D" stroke-miterlimit="10"/>
<path d="M366.498 239.875C383.9 239.875 398.007 226.196 398.007 209.322C398.007 192.448 383.9 178.769 366.498 178.769C349.096 178.769 334.989 192.448 334.989 209.322C334.989 226.196 349.096 239.875 366.498 239.875Z" stroke="#5F787D" stroke-miterlimit="10"/>
<path d="M366.405 301.675C383.807 301.675 397.914 287.996 397.914 271.122C397.914 254.248 383.807 240.569 366.405 240.569C349.003 240.569 334.896 254.248 334.896 271.122C334.896 287.996 349.003 301.675 366.405 301.675Z" stroke="#5F787D" stroke-miterlimit="10"/>
<path d="M366.399 363.592C383.801 363.592 397.908 349.913 397.908 333.039C397.908 316.165 383.801 302.486 366.399 302.486C348.997 302.486 334.89 316.165 334.89 333.039C334.89 349.913 348.997 363.592 366.399 363.592Z" stroke="#5F787D" stroke-miterlimit="10"/>
<path d="M366.399 146.52V605.652" stroke="#5F787D" stroke-miterlimit="10"/>
<path d="M430.216 239.832C447.618 239.832 461.725 226.153 461.725 209.279C461.725 192.405 447.618 178.726 430.216 178.726C412.814 178.726 398.707 192.405 398.707 209.279C398.707 226.153 412.814 239.832 430.216 239.832Z" stroke="#5F787D" stroke-miterlimit="10"/>
<path d="M299.896 209.143H726.383" stroke="#5F787D" stroke-miterlimit="10"/>
<path d="M430.012 146.792V605.931" stroke="#5F787D" stroke-miterlimit="10"/>
<path d="M397.834 239.813C415.236 239.813 429.343 226.134 429.343 209.26C429.343 192.386 415.236 178.707 397.834 178.707C380.432 178.707 366.325 192.386 366.325 209.26C366.325 226.134 380.432 239.813 397.834 239.813Z" stroke="#5F787D" stroke-miterlimit="10"/>
<path d="M397.747 301.619C415.149 301.619 429.256 287.94 429.256 271.066C429.256 254.192 415.149 240.513 397.747 240.513C380.345 240.513 366.238 254.192 366.238 271.066C366.238 287.94 380.345 301.619 397.747 301.619Z" stroke="#5F787D" stroke-miterlimit="10"/>
<path d="M397.741 363.536C415.143 363.536 429.25 349.857 429.25 332.983C429.25 316.109 415.143 302.43 397.741 302.43C380.339 302.43 366.232 316.109 366.232 332.983C366.232 349.857 380.339 363.536 397.741 363.536Z" stroke="#5F787D" stroke-miterlimit="10"/>
<path d="M397.735 146.458V605.596" stroke="#5F787D" stroke-miterlimit="10"/>
<path d="M461.558 239.776C478.96 239.776 493.067 226.097 493.067 209.223C493.067 192.349 478.96 178.67 461.558 178.67C444.156 178.67 430.049 192.349 430.049 209.223C430.049 226.097 444.156 239.776 461.558 239.776Z" stroke="#5F787D" stroke-miterlimit="10"/>
<path d="M331.232 209.081H757.718" stroke="#5F787D" stroke-miterlimit="10"/>
<path d="M461.354 146.737V605.875" stroke="#5F787D" stroke-miterlimit="10"/>
<path d="M430.222 271.109C447.624 271.109 461.731 257.43 461.731 240.556C461.731 223.682 447.624 210.003 430.222 210.003C412.82 210.003 398.713 223.682 398.713 240.556C398.713 257.43 412.82 271.109 430.222 271.109Z" stroke="#5F787D" stroke-miterlimit="10"/>
<path d="M430.129 332.909C447.531 332.909 461.638 319.23 461.638 302.356C461.638 285.482 447.531 271.802 430.129 271.802C412.727 271.802 398.62 285.482 398.62 302.356C398.62 319.23 412.727 332.909 430.129 332.909Z" stroke="#5F787D" stroke-miterlimit="10"/>
<path d="M430.123 394.826C447.525 394.826 461.632 381.147 461.632 364.273C461.632 347.399 447.525 333.72 430.123 333.72C412.721 333.72 398.614 347.399 398.614 364.273C398.614 381.147 412.721 394.826 430.123 394.826Z" stroke="#5F787D" stroke-miterlimit="10"/>
<path d="M430.117 177.754V636.886" stroke="#5F787D" stroke-miterlimit="10"/>
<path d="M493.94 271.066C511.342 271.066 525.449 257.387 525.449 240.513C525.449 223.639 511.342 209.96 493.94 209.96C476.538 209.96 462.431 223.639 462.431 240.513C462.431 257.387 476.538 271.066 493.94 271.066Z" stroke="#5F787D" stroke-miterlimit="10"/>
<path d="M363.62 240.377H790.1" stroke="#5F787D" stroke-miterlimit="10"/>
<path d="M493.735 178.032V637.165" stroke="#5F787D" stroke-miterlimit="10"/>
<path d="M461.774 303.043C479.176 303.043 493.284 289.364 493.284 272.49C493.284 255.616 479.176 241.936 461.774 241.936C444.372 241.936 430.265 255.616 430.265 272.49C430.265 289.364 444.372 303.043 461.774 303.043Z" stroke="#5F787D" stroke-miterlimit="10"/>
<path d="M461.682 364.842C479.084 364.842 493.191 351.163 493.191 334.289C493.191 317.415 479.084 303.736 461.682 303.736C444.28 303.736 430.173 317.415 430.173 334.289C430.173 351.163 444.28 364.842 461.682 364.842Z" stroke="#5F787D" stroke-miterlimit="10"/>
<path d="M461.675 426.759C479.077 426.759 493.184 413.08 493.184 396.206C493.184 379.332 479.077 365.653 461.675 365.653C444.273 365.653 430.166 379.332 430.166 396.206C430.166 413.08 444.273 426.759 461.675 426.759Z" stroke="#5F787D" stroke-miterlimit="10"/>
<path d="M461.675 209.687V668.819" stroke="#5F787D" stroke-miterlimit="10"/>
<path d="M525.492 302.999C542.894 302.999 557.001 289.32 557.001 272.446C557.001 255.572 542.894 241.893 525.492 241.893C508.09 241.893 493.983 255.572 493.983 272.446C493.983 289.32 508.09 302.999 525.492 302.999Z" stroke="#5F787D" stroke-miterlimit="10"/>
<path d="M395.172 272.31H821.659" stroke="#5F787D" stroke-miterlimit="10"/>
<path d="M525.288 209.966V669.098" stroke="#5F787D" stroke-miterlimit="10"/>
<path d="M493.779 334.122C511.181 334.122 525.288 320.443 525.288 303.569C525.288 286.695 511.181 273.016 493.779 273.016C476.377 273.016 462.27 286.695 462.27 303.569C462.27 320.443 476.377 334.122 493.779 334.122Z" stroke="#5F787D" stroke-miterlimit="10"/>
<path d="M493.686 395.921C511.088 395.921 525.195 382.242 525.195 365.368C525.195 348.494 511.088 334.815 493.686 334.815C476.284 334.815 462.177 348.494 462.177 365.368C462.177 382.242 476.284 395.921 493.686 395.921Z" stroke="#5F787D" stroke-miterlimit="10"/>
<path d="M493.68 457.838C511.082 457.838 525.189 444.159 525.189 427.285C525.189 410.411 511.082 396.732 493.68 396.732C476.278 396.732 462.171 410.411 462.171 427.285C462.171 444.159 476.278 457.838 493.68 457.838Z" stroke="#5F787D" stroke-miterlimit="10"/>
<path d="M493.674 240.76V699.899" stroke="#5F787D" stroke-miterlimit="10"/>
<path d="M557.497 334.079C574.898 334.079 589.006 320.4 589.006 303.526C589.006 286.652 574.898 272.972 557.497 272.972C540.095 272.972 525.987 286.652 525.987 303.526C525.987 320.4 540.095 334.079 557.497 334.079Z" stroke="#5F787D" stroke-miterlimit="10"/>
<path d="M427.176 303.383H853.657" stroke="#5F787D" stroke-miterlimit="10"/>
<path d="M557.292 241.039V700.177" stroke="#5F787D" stroke-miterlimit="10"/>
<path d="M525.746 365.622C543.148 365.622 557.255 351.943 557.255 335.069C557.255 318.195 543.148 304.516 525.746 304.516C508.344 304.516 494.237 318.195 494.237 335.069C494.237 351.943 508.344 365.622 525.746 365.622Z" stroke="#5F787D" stroke-miterlimit="10"/>
<path d="M525.653 427.422C543.055 427.422 557.162 413.742 557.162 396.868C557.162 379.994 543.055 366.315 525.653 366.315C508.251 366.315 494.144 379.994 494.144 396.868C494.144 413.742 508.251 427.422 525.653 427.422Z" stroke="#5F787D" stroke-miterlimit="10"/>
<path d="M525.647 489.339C543.049 489.339 557.156 475.659 557.156 458.785C557.156 441.911 543.049 428.232 525.647 428.232C508.245 428.232 494.138 441.911 494.138 458.785C494.138 475.659 508.245 489.339 525.647 489.339Z" stroke="#5F787D" stroke-miterlimit="10"/>
<path d="M525.647 272.261V731.399" stroke="#5F787D" stroke-miterlimit="10"/>
<path d="M589.464 365.579C606.866 365.579 620.973 351.9 620.973 335.026C620.973 318.152 606.866 304.473 589.464 304.473C572.062 304.473 557.955 318.152 557.955 335.026C557.955 351.9 572.062 365.579 589.464 365.579Z" stroke="#5F787D" stroke-miterlimit="10"/>
<path d="M459.144 334.883H885.63" stroke="#5F787D" stroke-miterlimit="10"/>
<path d="M589.259 272.539V731.677" stroke="#5F787D" stroke-miterlimit="10"/>
<path d="M759.074 124.193C776.476 124.193 790.583 110.514 790.583 93.64C790.583 76.766 776.476 63.0869 759.074 63.0869C741.672 63.0869 727.565 76.766 727.565 93.64C727.565 110.514 741.672 124.193 759.074 124.193Z" stroke="#5F787D" stroke-miterlimit="10"/>
<path d="M759.167 185.993C776.569 185.993 790.676 172.314 790.676 155.44C790.676 138.565 776.569 124.886 759.167 124.886C741.765 124.886 727.658 138.565 727.658 155.44C727.658 172.314 741.765 185.993 759.167 185.993Z" stroke="#5F787D" stroke-miterlimit="10"/>
<path d="M759.173 247.91C776.575 247.91 790.682 234.231 790.682 217.357C790.682 200.483 776.575 186.803 759.173 186.803C741.771 186.803 727.664 200.483 727.664 217.357C727.664 234.231 741.771 247.91 759.173 247.91Z" stroke="#5F787D" stroke-miterlimit="10"/>
<path d="M759.173 30.8378V489.97" stroke="#5F787D" stroke-miterlimit="10"/>
<path d="M695.356 124.156C712.758 124.156 726.865 110.477 726.865 93.6029C726.865 76.7289 712.758 63.0498 695.356 63.0498C677.954 63.0498 663.847 76.7289 663.847 93.6029C663.847 110.477 677.954 124.156 695.356 124.156Z" stroke="#5F787D" stroke-miterlimit="10"/>
<path d="M825.676 93.4605H399.19" stroke="#5F787D" stroke-miterlimit="10"/>
<path d="M695.561 31.1164V490.248" stroke="#5F787D" stroke-miterlimit="10"/>
<path d="M725.262 155.353C742.664 155.353 756.771 141.674 756.771 124.8C756.771 107.926 742.664 94.2466 725.262 94.2466C707.86 94.2466 693.753 107.926 693.753 124.8C693.753 141.674 707.86 155.353 725.262 155.353Z" stroke="#5F787D" stroke-miterlimit="10"/>
<path d="M725.349 217.159C742.751 217.159 756.858 203.479 756.858 186.605C756.858 169.731 742.751 156.052 725.349 156.052C707.947 156.052 693.84 169.731 693.84 186.605C693.84 203.479 707.947 217.159 725.349 217.159Z" stroke="#5F787D" stroke-miterlimit="10"/>
<path d="M725.361 279.076C742.763 279.076 756.87 265.396 756.87 248.522C756.87 231.648 742.763 217.969 725.361 217.969C707.959 217.969 693.852 231.648 693.852 248.522C693.852 265.396 707.959 279.076 725.361 279.076Z" stroke="#5F787D" stroke-miterlimit="10"/>
<path d="M725.361 61.9975V521.136" stroke="#5F787D" stroke-miterlimit="10"/>
<path d="M661.538 155.316C678.94 155.316 693.047 141.637 693.047 124.763C693.047 107.889 678.94 94.2095 661.538 94.2095C644.136 94.2095 630.029 107.889 630.029 124.763C630.029 141.637 644.136 155.316 661.538 155.316Z" stroke="#5F787D" stroke-miterlimit="10"/>
<path d="M791.864 124.62H365.378" stroke="#5F787D" stroke-miterlimit="10"/>
<path d="M661.749 62.2761V521.414" stroke="#5F787D" stroke-miterlimit="10"/>
<path d="M695.74 185.943C713.142 185.943 727.249 172.264 727.249 155.39C727.249 138.516 713.142 124.837 695.74 124.837C678.338 124.837 664.231 138.516 664.231 155.39C664.231 172.264 678.338 185.943 695.74 185.943Z" stroke="#5F787D" stroke-miterlimit="10"/>
<path d="M695.833 247.749C713.235 247.749 727.342 234.07 727.342 217.196C727.342 200.322 713.235 186.643 695.833 186.643C678.431 186.643 664.324 200.322 664.324 217.196C664.324 234.07 678.431 247.749 695.833 247.749Z" stroke="#5F787D" stroke-miterlimit="10"/>
<path d="M695.839 309.666C713.241 309.666 727.348 295.987 727.348 279.113C727.348 262.239 713.241 248.56 695.839 248.56C678.437 248.56 664.33 262.239 664.33 279.113C664.33 295.987 678.437 309.666 695.839 309.666Z" stroke="#5F787D" stroke-miterlimit="10"/>
<path d="M695.839 92.5878V551.726" stroke="#5F787D" stroke-miterlimit="10"/>
<path d="M632.022 185.906C649.424 185.906 663.532 172.227 663.532 155.353C663.532 138.479 649.424 124.8 632.022 124.8C614.62 124.8 600.513 138.479 600.513 155.353C600.513 172.227 614.62 185.906 632.022 185.906Z" stroke="#5F787D" stroke-miterlimit="10"/>
<path d="M762.342 155.21H335.856" stroke="#5F787D" stroke-miterlimit="10"/>
<path d="M632.227 92.8663V551.998" stroke="#5F787D" stroke-miterlimit="10"/>
<path d="M664.212 216.923C681.614 216.923 695.721 203.244 695.721 186.37C695.721 169.496 681.614 155.817 664.212 155.817C646.81 155.817 632.703 169.496 632.703 186.37C632.703 203.244 646.81 216.923 664.212 216.923Z" stroke="#5F787D" stroke-miterlimit="10"/>
<path d="M664.299 278.723C681.701 278.723 695.808 265.044 695.808 248.17C695.808 231.296 681.701 217.617 664.299 217.617C646.897 217.617 632.79 231.296 632.79 248.17C632.79 265.044 646.897 278.723 664.299 278.723Z" stroke="#5F787D" stroke-miterlimit="10"/>
<path d="M664.305 340.64C681.707 340.64 695.814 326.961 695.814 310.087C695.814 293.213 681.707 279.534 664.305 279.534C646.903 279.534 632.796 293.213 632.796 310.087C632.796 326.961 646.903 340.64 664.305 340.64Z" stroke="#5F787D" stroke-miterlimit="10"/>
<path d="M664.312 123.568V582.7" stroke="#5F787D" stroke-miterlimit="10"/>
<path d="M600.489 216.88C617.891 216.88 631.998 203.201 631.998 186.327C631.998 169.453 617.891 155.774 600.489 155.774C583.087 155.774 568.98 169.453 568.98 186.327C568.98 203.201 583.087 216.88 600.489 216.88Z" stroke="#5F787D" stroke-miterlimit="10"/>
<path d="M730.815 186.191H304.328" stroke="#5F787D" stroke-miterlimit="10"/>
<path d="M600.699 123.847V582.979" stroke="#5F787D" stroke-miterlimit="10"/>
<path d="M632.171 246.808C649.573 246.808 663.68 233.129 663.68 216.255C663.68 199.381 649.573 185.702 632.171 185.702C614.769 185.702 600.662 199.381 600.662 216.255C600.662 233.129 614.769 246.808 632.171 246.808Z" stroke="#5F787D" stroke-miterlimit="10"/>
<path d="M632.264 308.607C649.666 308.607 663.773 294.928 663.773 278.054C663.773 261.18 649.666 247.501 632.264 247.501C614.862 247.501 600.755 261.18 600.755 278.054C600.755 294.928 614.862 308.607 632.264 308.607Z" stroke="#5F787D" stroke-miterlimit="10"/>
<path d="M632.27 370.524C649.672 370.524 663.779 356.845 663.779 339.971C663.779 323.097 649.672 309.418 632.27 309.418C614.868 309.418 600.761 323.097 600.761 339.971C600.761 356.845 614.868 370.524 632.27 370.524Z" stroke="#5F787D" stroke-miterlimit="10"/>
<path d="M632.27 153.453V612.585" stroke="#5F787D" stroke-miterlimit="10"/>
<path d="M568.453 246.765C585.855 246.765 599.962 233.085 599.962 216.211C599.962 199.337 585.855 185.658 568.453 185.658C551.051 185.658 536.944 199.337 536.944 216.211C536.944 233.085 551.051 246.765 568.453 246.765Z" stroke="#5F787D" stroke-miterlimit="10"/>
<path d="M698.773 216.075H272.287" stroke="#5F787D" stroke-miterlimit="10"/>
<path d="M568.658 153.731V612.863" stroke="#5F787D" stroke-miterlimit="10"/>
<path d="M632.047 122.912C649.449 122.912 663.556 109.233 663.556 92.3588C663.556 75.4847 649.449 61.8057 632.047 61.8057C614.645 61.8057 600.538 75.4847 600.538 92.3588C600.538 109.233 614.645 122.912 632.047 122.912Z" stroke="#5F787D" stroke-miterlimit="10"/>
<path d="M632.134 184.711C649.536 184.711 663.643 171.032 663.643 154.158C663.643 137.284 649.536 123.605 632.134 123.605C614.732 123.605 600.625 137.284 600.625 154.158C600.625 171.032 614.732 184.711 632.134 184.711Z" stroke="#5F787D" stroke-miterlimit="10"/>
<path d="M632.14 246.628C649.542 246.628 663.649 232.949 663.649 216.075C663.649 199.201 649.542 185.522 632.14 185.522C614.738 185.522 600.631 199.201 600.631 216.075C600.631 232.949 614.738 246.628 632.14 246.628Z" stroke="#5F787D" stroke-miterlimit="10"/>
<path d="M632.146 29.5503V488.689" stroke="#5F787D" stroke-miterlimit="10"/>
<path d="M568.324 122.869C585.726 122.869 599.833 109.189 599.833 92.3154C599.833 75.4414 585.726 61.7623 568.324 61.7623C550.922 61.7623 536.814 75.4414 536.814 92.3154C536.814 109.189 550.922 122.869 568.324 122.869Z" stroke="#5F787D" stroke-miterlimit="10"/>
<path d="M698.643 92.1731H272.163" stroke="#5F787D" stroke-miterlimit="10"/>
<path d="M568.528 29.8289V488.967" stroke="#5F787D" stroke-miterlimit="10"/>
<path d="M598.861 154.103C616.263 154.103 630.37 140.423 630.37 123.549C630.37 106.675 616.263 92.9963 598.861 92.9963C581.459 92.9963 567.352 106.675 567.352 123.549C567.352 140.423 581.459 154.103 598.861 154.103Z" stroke="#5F787D" stroke-miterlimit="10"/>
<path d="M598.953 215.902C616.355 215.902 630.462 202.223 630.462 185.349C630.462 168.475 616.355 154.796 598.953 154.796C581.551 154.796 567.444 168.475 567.444 185.349C567.444 202.223 581.551 215.902 598.953 215.902Z" stroke="#5F787D" stroke-miterlimit="10"/>
<path d="M598.96 277.825C616.362 277.825 630.469 264.146 630.469 247.272C630.469 230.398 616.362 216.719 598.96 216.719C581.558 216.719 567.451 230.398 567.451 247.272C567.451 264.146 581.558 277.825 598.96 277.825Z" stroke="#5F787D" stroke-miterlimit="10"/>
<path d="M598.96 60.7472V519.879" stroke="#5F787D" stroke-miterlimit="10"/>
<path d="M535.143 154.065C552.545 154.065 566.652 140.386 566.652 123.512C566.652 106.638 552.545 92.9592 535.143 92.9592C517.741 92.9592 503.634 106.638 503.634 123.512C503.634 140.386 517.741 154.065 535.143 154.065Z" stroke="#5F787D" stroke-miterlimit="10"/>
<path d="M665.463 123.37H238.976" stroke="#5F787D" stroke-miterlimit="10"/>
<path d="M535.347 61.0257V520.158" stroke="#5F787D" stroke-miterlimit="10"/>
<path d="M567.692 185.268C585.094 185.268 599.201 171.589 599.201 154.715C599.201 137.841 585.094 124.162 567.692 124.162C550.29 124.162 536.183 137.841 536.183 154.715C536.183 171.589 550.29 185.268 567.692 185.268Z" stroke="#5F787D" stroke-miterlimit="10"/>
<path d="M567.785 247.068C585.187 247.068 599.294 233.389 599.294 216.515C599.294 199.641 585.187 185.962 567.785 185.962C550.383 185.962 536.276 199.641 536.276 216.515C536.276 233.389 550.383 247.068 567.785 247.068Z" stroke="#5F787D" stroke-miterlimit="10"/>
<path d="M567.791 308.985C585.193 308.985 599.3 295.306 599.3 278.432C599.3 261.558 585.193 247.879 567.791 247.879C550.389 247.879 536.282 261.558 536.282 278.432C536.282 295.306 550.389 308.985 567.791 308.985Z" stroke="#5F787D" stroke-miterlimit="10"/>
<path d="M567.791 91.9131V551.045" stroke="#5F787D" stroke-miterlimit="10"/>
<path d="M503.974 185.225C521.376 185.225 535.483 171.546 535.483 154.672C535.483 137.798 521.376 124.119 503.974 124.119C486.572 124.119 472.465 137.798 472.465 154.672C472.465 171.546 486.572 185.225 503.974 185.225Z" stroke="#5F787D" stroke-miterlimit="10"/>
<path d="M634.294 154.536H207.814" stroke="#5F787D" stroke-miterlimit="10"/>
<path d="M504.179 92.1916V551.324" stroke="#5F787D" stroke-miterlimit="10"/>
</g>
</svg>
